<svg width="460" height="460" viewBox="0 0 460 460" fill="none" xmlns="http://www.w3.org/2000/svg">
<path d="M340.097 176.617C345.209 175.2 354.12 173.457 365.012 175.084C374.245 176.478 381.315 179.753 385.667 182.193C380.301 172.97 369.824 157.659 351.679 144.347C332.797 130.478 314.353 125.204 303.853 123.02C310.807 116.074 317.784 109.127 324.738 102.181C311.359 102.738 293.399 104.853 273.135 111.334C251.697 118.165 235.072 127.527 223.536 135.217C214.624 132.615 201.821 127.783 188.282 118.443C174.972 109.243 165.946 99.1141 160.327 91.7727C158.715 98.603 157.219 108.221 157.817 119.721C158.462 132.22 161.317 142.303 163.85 149.18C156.85 157.52 151.646 163.677 149.32 166.441C133.202 185.538 128.389 191.137 126.109 200.5C124.475 207.26 124.82 213.161 125.35 216.971C108.241 233.466 91.1089 249.985 74 266.479C91.5003 290.223 106.214 295.357 116.277 295.775C124.313 296.101 125.787 293.29 155.146 285.391C171.311 281.046 179.578 278.839 189.525 278.049C204.608 276.841 217.18 278.978 225.539 281.046C223.743 280.163 220.174 278.142 217.272 274.053C214.716 270.452 213.841 266.921 213.496 264.969C219.253 266.34 228.118 269.5 233.575 277.422C246.931 296.774 228.026 327.162 226.276 329.997C199.657 372.814 128.55 366.634 122.794 366.076C130.208 369.863 208.131 407.964 280.941 366.448C317.853 345.4 336.251 313.687 343.85 298.261C346.959 299.283 351.679 301.258 356.446 305.115C362.272 309.831 365.426 315.151 367.015 318.334C371.091 304.093 377.653 273.844 369.018 237.3C362.179 208.306 348.709 187.792 340.074 176.594L340.097 176.617ZM178.841 211.163C177.874 214.416 176.561 217.018 175.387 218.946C174.12 220.805 170.85 224.987 165.002 227.426C157.08 230.702 149.988 228.448 148.123 227.798C149.274 224.313 151.163 219.806 154.294 215.09C156.505 211.791 158.784 209.142 160.834 207.098C163.459 204.217 167.235 200.639 172.278 197.317C177.482 193.902 182.364 191.834 186.117 190.58C184.068 193.089 181.995 195.575 179.946 198.084C180.268 201.034 180.406 205.75 178.818 211.163H178.841Z" fill="url(#paint0_linear_17_26)"/>
<path d="M209.19 74C207.601 80.598 201.637 107.408 211.7 113.634C213.104 114.517 214.67 114.866 221.256 115.284C231.249 115.911 239.447 115.841 245.042 115.655C239.907 109.94 234.749 104.109 229.568 98.1383C222.522 90.0303 215.729 81.9687 209.167 74H209.19Z" fill="url(#paint1_linear_17_26)"/>
<mask id="path-2-inside-1_17_26" fill="white">
<path d="M117 75L342 229.997L117 385"/>
</mask>
<path d="M342 229.997L364.693 262.937L412.509 229.996L364.692 197.057L342 229.997ZM94.3081 107.941L319.308 262.938L364.692 197.057L139.692 42.0595L94.3081 107.941ZM319.308 197.057L94.3075 352.06L139.692 417.94L364.693 262.937L319.308 197.057Z" fill="#0C2B3F" mask="url(#path-2-inside-1_17_26)"/>
<rect x="227.5" y="362.5" width="155" height="15" stroke="#0C2B3F" stroke-width="15" stroke-miterlimit="10"/>
<defs>
<linearGradient id="paint0_linear_17_26" x1="376" y1="79" x2="129.5" y2="377.5" gradientUnits="userSpaceOnUse">
<stop stop-color="#075B6A"/>
<stop offset="1" stop-color="#0BA1BC"/>
</linearGradient>
<linearGradient id="paint1_linear_17_26" x1="376" y1="79" x2="129.5" y2="377.5" gradientUnits="userSpaceOnUse">
<stop stop-color="#075B6A"/>
<stop offset="1" stop-color="#0BA1BC"/>
</linearGradient>
</defs>
</svg>
