<svg width="460" height="460" viewBox="0 0 460 460" fill="none" xmlns="http://www.w3.org/2000/svg">
<path d="M330.18 185.95C335.292 184.533 344.204 182.791 355.095 184.417C364.329 185.811 371.398 189.087 375.75 191.526C370.385 182.303 359.908 166.993 341.763 153.681C322.881 139.811 304.436 134.537 293.936 132.353C300.89 125.407 307.867 118.461 314.821 111.514C301.443 112.072 283.482 114.186 263.219 120.668C241.781 127.498 225.155 136.86 213.619 144.55C204.708 141.948 191.905 137.116 178.365 127.777C165.056 118.577 156.029 108.447 150.411 101.106C148.799 107.936 147.302 117.554 147.901 129.054C148.546 141.553 151.401 151.636 153.934 158.513C146.934 166.853 141.73 173.01 139.404 175.775C123.285 194.871 118.473 200.47 116.193 209.833C114.558 216.594 114.903 222.495 115.433 226.305C98.3242 242.8 81.1923 259.318 64.0835 275.813C81.5838 299.556 96.2979 304.69 106.361 305.109C114.397 305.434 115.871 302.623 145.23 294.724C161.394 290.379 169.661 288.172 179.609 287.382C194.691 286.174 207.264 288.312 215.622 290.379C213.826 289.497 210.257 287.475 207.356 283.386C204.8 279.785 203.925 276.254 203.579 274.303C209.336 275.673 218.201 278.833 223.659 286.755C237.014 306.108 218.109 336.495 216.359 339.33C189.74 382.147 118.634 375.967 112.877 375.41C120.292 379.196 198.214 417.297 271.025 375.781C307.936 354.733 326.335 323.021 333.934 307.594C337.042 308.617 341.763 310.591 346.529 314.448C352.355 319.164 355.51 324.484 357.099 327.667C361.174 313.426 367.737 283.177 359.102 246.633C352.263 217.639 338.792 197.125 330.157 185.927L330.18 185.95ZM168.924 220.497C167.957 223.749 166.645 226.351 165.47 228.279C164.204 230.138 160.934 234.32 155.085 236.759C147.164 240.035 140.072 237.781 138.207 237.131C139.358 233.646 141.246 229.139 144.378 224.423C146.588 221.124 148.868 218.475 150.917 216.431C153.542 213.55 157.319 209.972 162.362 206.65C167.566 203.235 172.447 201.167 176.201 199.913C174.151 202.422 172.079 204.908 170.029 207.417C170.352 210.367 170.49 215.084 168.901 220.497H168.924Z" fill="url(#paint0_linear_7_2)"/>
<path d="M199.273 83.3333C197.684 89.9312 191.721 116.741 201.783 122.968C203.188 123.85 204.754 124.199 211.339 124.617C221.333 125.244 229.53 125.175 235.126 124.989C229.991 119.274 224.833 113.442 219.652 107.472C212.606 99.3635 205.813 91.3019 199.25 83.3333H199.273Z" fill="url(#paint1_linear_7_2)"/>
<path d="M339.347 177.617C344.459 176.2 353.37 174.457 364.262 176.084C373.495 177.478 380.565 180.753 384.917 183.193C379.551 173.97 369.074 158.659 350.929 145.347C332.047 131.478 313.603 126.204 303.103 124.02C310.057 117.074 317.034 110.127 323.988 103.181C310.609 103.738 292.649 105.853 272.385 112.334C250.947 119.165 234.322 128.527 222.786 136.217C213.874 133.615 201.071 128.783 187.532 119.443C174.222 110.243 165.196 100.114 159.577 92.7727C157.965 99.603 156.469 109.221 157.067 120.721C157.712 133.22 160.567 143.303 163.1 150.18C156.1 158.52 150.896 164.677 148.57 167.441C132.452 186.538 127.639 192.137 125.359 201.5C123.725 208.26 124.07 214.161 124.6 217.971C107.491 234.466 90.3589 250.985 73.25 267.479C90.7503 291.223 105.464 296.357 115.527 296.775C123.563 297.101 125.037 294.29 154.396 286.391C170.561 282.046 178.828 279.839 188.775 279.049C203.858 277.841 216.43 279.978 224.789 282.046C222.993 281.163 219.424 279.142 216.522 275.053C213.966 271.452 213.091 267.921 212.746 265.969C218.503 267.34 227.368 270.5 232.825 278.422C246.181 297.774 227.276 328.162 225.526 330.997C198.907 373.814 127.8 367.634 122.044 367.076C129.458 370.863 207.381 408.964 280.191 367.448C317.103 346.4 335.501 314.687 343.1 299.261C346.209 300.283 350.929 302.258 355.696 306.115C361.522 310.831 364.676 316.151 366.265 319.334C370.341 305.093 376.903 274.844 368.268 238.3C361.429 209.306 347.959 188.792 339.324 177.594L339.347 177.617ZM178.091 212.163C177.124 215.416 175.811 218.018 174.637 219.946C173.37 221.805 170.1 225.987 164.252 228.426C156.33 231.702 149.238 229.448 147.373 228.798C148.524 225.313 150.413 220.806 153.544 216.09C155.755 212.791 158.034 210.142 160.084 208.098C162.709 205.217 166.485 201.639 171.528 198.317C176.732 194.902 181.614 192.834 185.367 191.58C183.318 194.089 181.245 196.575 179.196 199.084C179.518 202.034 179.656 206.75 178.068 212.163H178.091Z" fill="url(#paint2_linear_7_2)"/>
<path d="M208.44 75C206.851 81.598 200.887 108.408 210.95 114.634C212.354 115.517 213.92 115.866 220.506 116.284C230.499 116.911 238.697 116.841 244.292 116.655C239.157 110.94 233.999 105.109 228.818 99.1383C221.772 91.0303 214.979 82.9687 208.417 75H208.44Z" fill="url(#paint3_linear_7_2)"/>
<g filter="url(#filter0_bddi_7_2)">
<mask id="path-3-inside-1_7_2" fill="white">
<path d="M117 75L342 229.997L117 385"/>
</mask>
<path d="M342 229.997L364.693 262.937L412.509 229.996L364.692 197.057L342 229.997ZM94.3081 107.941L319.308 262.938L364.692 197.057L139.692 42.0595L94.3081 107.941ZM319.308 197.057L94.3075 352.06L139.692 417.94L364.693 262.937L319.308 197.057Z" fill="url(#paint4_radial_7_2)" mask="url(#path-3-inside-1_7_2)"/>
</g>
<g filter="url(#filter1_bddi_7_2)">
<rect x="227.5" y="362.5" width="155" height="15" stroke="url(#paint5_radial_7_2)" stroke-width="15" stroke-miterlimit="10" shape-rendering="crispEdges"/>
</g>
<defs>
<filter id="filter0_bddi_7_2" x="79.5" y="57.5" width="300" height="385" filterUnits="userSpaceOnUse" color-interpolation-filters="sRGB">
<feFlood flood-opacity="0" result="BackgroundImageFix"/>
<feGaussianBlur in="BackgroundImageFix" stdDeviation="2.25"/>
<feComposite in2="SourceAlpha" operator="in" result="effect1_backgroundBlur_7_2"/>
<feColorMatrix in="SourceAlpha" type="matrix" values="0 0 0 0 0 0 0 0 0 0 0 0 0 0 0 0 0 0 127 0" result="hardAlpha"/>
<feOffset dy="20"/>
<feGaussianBlur stdDeviation="18.75"/>
<feColorMatrix type="matrix" values="0 0 0 0 0.0565888 0 0 0 0 0.663949 0 0 0 0 0.837988 0 0 0 0.38 0"/>
<feBlend mode="normal" in2="effect1_backgroundBlur_7_2" result="effect2_dropShadow_7_2"/>
<feColorMatrix in="SourceAlpha" type="matrix" values="0 0 0 0 0 0 0 0 0 0 0 0 0 0 0 0 0 0 127 0" result="hardAlpha"/>
<feOffset dx="5" dy="2"/>
<feGaussianBlur stdDeviation="3.1"/>
<feComposite in2="hardAlpha" operator="out"/>
<feColorMatrix type="matrix" values="0 0 0 0 0.111468 0 0 0 0 0.641753 0 0 0 0 0.705387 0 0 0 0.39 0"/>
<feBlend mode="normal" in2="effect2_dropShadow_7_2" result="effect3_dropShadow_7_2"/>
<feBlend mode="normal" in="SourceGraphic" in2="effect3_dropShadow_7_2" result="shape"/>
<feColorMatrix in="SourceAlpha" type="matrix" values="0 0 0 0 0 0 0 0 0 0 0 0 0 0 0 0 0 0 127 0" result="hardAlpha"/>
<feOffset/>
<feGaussianBlur stdDeviation="7.5"/>
<feComposite in2="hardAlpha" operator="arithmetic" k2="-1" k3="1"/>
<feColorMatrix type="matrix" values="0 0 0 0 0.630339 0 0 0 0 0.960393 0 0 0 0 1 0 0 0 1 0"/>
<feBlend mode="normal" in2="shape" result="effect4_innerShadow_7_2"/>
</filter>
<filter id="filter1_bddi_7_2" x="182.5" y="337.5" width="245" height="105" filterUnits="userSpaceOnUse" color-interpolation-filters="sRGB">
<feFlood flood-opacity="0" result="BackgroundImageFix"/>
<feGaussianBlur in="BackgroundImageFix" stdDeviation="2.25"/>
<feComposite in2="SourceAlpha" operator="in" result="effect1_backgroundBlur_7_2"/>
<feColorMatrix in="SourceAlpha" type="matrix" values="0 0 0 0 0 0 0 0 0 0 0 0 0 0 0 0 0 0 127 0" result="hardAlpha"/>
<feOffset dy="20"/>
<feGaussianBlur stdDeviation="18.75"/>
<feColorMatrix type="matrix" values="0 0 0 0 0.0565888 0 0 0 0 0.663949 0 0 0 0 0.837988 0 0 0 0.38 0"/>
<feBlend mode="normal" in2="effect1_backgroundBlur_7_2" result="effect2_dropShadow_7_2"/>
<feColorMatrix in="SourceAlpha" type="matrix" values="0 0 0 0 0 0 0 0 0 0 0 0 0 0 0 0 0 0 127 0" result="hardAlpha"/>
<feOffset dx="5" dy="2"/>
<feGaussianBlur stdDeviation="3.1"/>
<feComposite in2="hardAlpha" operator="out"/>
<feColorMatrix type="matrix" values="0 0 0 0 0.111468 0 0 0 0 0.641753 0 0 0 0 0.705387 0 0 0 0.39 0"/>
<feBlend mode="normal" in2="effect2_dropShadow_7_2" result="effect3_dropShadow_7_2"/>
<feBlend mode="normal" in="SourceGraphic" in2="effect3_dropShadow_7_2" result="shape"/>
<feColorMatrix in="SourceAlpha" type="matrix" values="0 0 0 0 0 0 0 0 0 0 0 0 0 0 0 0 0 0 127 0" result="hardAlpha"/>
<feOffset/>
<feGaussianBlur stdDeviation="7.5"/>
<feComposite in2="hardAlpha" operator="arithmetic" k2="-1" k3="1"/>
<feColorMatrix type="matrix" values="0 0 0 0 0.630339 0 0 0 0 0.960393 0 0 0 0 1 0 0 0 1 0"/>
<feBlend mode="normal" in2="shape" result="effect4_innerShadow_7_2"/>
</filter>
<linearGradient id="paint0_linear_7_2" x1="329.917" y1="83.3332" x2="116.584" y2="376.667" gradientUnits="userSpaceOnUse">
<stop stop-color="#075B6A"/>
<stop offset="1" stop-color="#3ED0DF"/>
</linearGradient>
<linearGradient id="paint1_linear_7_2" x1="329.917" y1="83.3332" x2="116.584" y2="376.667" gradientUnits="userSpaceOnUse">
<stop stop-color="#075B6A"/>
<stop offset="1" stop-color="#3ED0DF"/>
</linearGradient>
<linearGradient id="paint2_linear_7_2" x1="309.5" y1="84.1667" x2="137.833" y2="371.667" gradientUnits="userSpaceOnUse">
<stop stop-color="#064268"/>
<stop offset="1" stop-color="#0BA1BC"/>
</linearGradient>
<linearGradient id="paint3_linear_7_2" x1="309.5" y1="84.1667" x2="137.833" y2="371.667" gradientUnits="userSpaceOnUse">
<stop stop-color="#064268"/>
<stop offset="1" stop-color="#0BA1BC"/>
</linearGradient>
<radialGradient id="paint4_radial_7_2" cx="0" cy="0" r="1" gradientUnits="userSpaceOnUse" gradientTransform="translate(388.406 230) rotate(179.209) scale(421.212 145.115)">
<stop stop-color="#07A8D6" stop-opacity="0.8"/>
<stop offset="1" stop-color="#ABECFF" stop-opacity="0.37"/>
</radialGradient>
<radialGradient id="paint5_radial_7_2" cx="0" cy="0" r="1" gradientUnits="userSpaceOnUse" gradientTransform="translate(425.063 370) rotate(-179.654) scale(717.076 31.6496)">
<stop stop-color="#07A8D6" stop-opacity="0.8"/>
<stop offset="1" stop-color="#ABECFF" stop-opacity="0.37"/>
</radialGradient>
</defs>
</svg>
